<?xml version="1.0" encoding="UTF-8" standalone="no"?>
<svg
   xmlns:dc="http://purl.org/dc/elements/1.1/"
   xmlns:cc="http://creativecommons.org/ns#"
   xmlns:rdf="http://www.w3.org/1999/02/22-rdf-syntax-ns#"
   xmlns:svg="http://www.w3.org/2000/svg"
   xmlns="http://www.w3.org/2000/svg"
   viewBox="0 0 90 113.88187"
   height="113.88187"
   width="90"
   xml:space="preserve"
   id="svg2"
   version="1.1"><metadata
     id="metadata8"><rdf:RDF><cc:Work
         rdf:about=""><dc:format>image/svg+xml</dc:format><dc:type
           rdf:resource="http://purl.org/dc/dcmitype/StillImage" /></cc:Work></rdf:RDF></metadata><defs
     id="defs6"><clipPath
       id="clipPath34"
       clipPathUnits="userSpaceOnUse"><path
         id="path32"
         d="M 0,85.411 H 67.5 V 0 H 0 Z" /></clipPath></defs><g
     transform="matrix(1.3333333,0,0,-1.3333333,0,113.88187)"
     id="g10"><g
       transform="translate(27.2114,42.9976)"
       id="g12"><path
         id="path14"
         style="fill:#000000;fill-opacity:1;fill-rule:nonzero;stroke:none"
         d="M 0,0 H 13.03 L 11.951,3.085 H 1.143 Z" /></g><g
       transform="translate(31.8271,47.5493)"
       id="g16"><path
         id="path18"
         style="fill:#000000;fill-opacity:1;fill-rule:nonzero;stroke:none"
         d="M 0,0 H 3.792 L 1.896,8.576 Z" /></g><g
       transform="translate(28.8291,47.5493)"
       id="g20"><path
         id="path22"
         style="fill:#000000;fill-opacity:1;fill-rule:nonzero;stroke:none"
         d="M 0,0 H 2.04 L 4.426,10.638 V 32.013 L -2.793,28.857 3.176,8.826 Z" /></g><g
       transform="translate(34.2021,79.5415)"
       id="g24"><path
         id="path26"
         style="fill:#000000;fill-opacity:1;fill-rule:nonzero;stroke:none"
         d="m 0,0 7.167,-3.146 -5.855,-20.083 3.13,-8.763 H 2.396 l -2.354,10.638 z" /></g><g
       id="g28"><g
         clip-path="url(#clipPath34)"
         id="g30"><g
           transform="translate(41.5635,45.0635)"
           id="g36"><path
             id="path38"
             style="fill:#fa6e07;fill-opacity:1;fill-rule:nonzero;stroke:none"
             d="m 0,0 c 4.941,2.732 8.285,7.976 8.285,13.997 0,5.717 -3.015,10.734 -7.552,13.565 L -0.039,24.839 C 3.257,22.429 5.398,18.529 5.398,14.127 5.398,9.328 2.853,5.125 -0.961,2.8 Z" /></g><g
           transform="translate(25.8794,45.0952)"
           id="g40"><path
             id="path42"
             style="fill:#fa6e07;fill-opacity:1;fill-rule:nonzero;stroke:none"
             d="m 0,0 c -4.91,2.741 -8.228,7.968 -8.228,13.965 0,5.67 2.966,10.651 7.439,13.494 L 0.023,24.768 C -3.242,22.355 -5.36,18.474 -5.36,14.096 -5.36,9.287 -2.804,5.077 1.021,2.755 Z" /></g><g
           transform="translate(32.5264,39.3398)"
           id="g44"><path
             id="path46"
             style="fill:#000000;fill-opacity:1;fill-rule:nonzero;stroke:none"
             d="m 0,0 c -3.553,-0.24 -6.91,-1.599 -9.58,-3.886 -0.465,-0.398 -1.096,-1.002 -1.096,-1.046 0,-0.05 0.431,-0.484 0.482,-0.484 0.019,0 0.093,0.06 0.166,0.134 0.071,0.075 0.261,0.257 0.422,0.403 4.618,4.28 11.274,5.395 17.037,2.853 1.705,-0.753 3.281,-1.819 4.682,-3.172 0.125,-0.119 0.238,-0.218 0.25,-0.218 0.032,0 0.494,0.439 0.496,0.47 0,0.034 -0.606,0.626 -0.959,0.935 -1.413,1.237 -3.069,2.249 -4.751,2.904 C 5.527,-0.475 3.865,-0.108 2.123,0.002 1.68,0.031 0.437,0.029 0,0" /></g><g
           transform="translate(30.7393,37.4556)"
           id="g48"><path
             id="path50"
             style="fill:#000000;fill-opacity:1;fill-rule:nonzero;stroke:none"
             d="m 0,0 c -0.672,-0.139 -1.26,-0.269 -1.303,-0.288 -0.18,-0.086 -0.187,-0.225 -0.043,-0.935 0.386,-1.884 0.456,-2.21 0.496,-2.325 0.065,-0.17 0.228,-0.386 0.377,-0.494 0.199,-0.146 0.355,-0.192 0.689,-0.194 0.262,0 0.352,0.012 0.971,0.136 1.092,0.224 1.008,0.199 1.008,0.288 -0.003,0.094 -0.13,0.708 -0.154,0.731 C 2.032,-3.071 1.66,-3.138 1.216,-3.227 0.772,-3.316 0.367,-3.388 0.319,-3.388 c -0.156,0 -0.25,0.063 -0.314,0.214 -0.058,0.124 -0.151,0.522 -0.132,0.544 0.009,0.007 1.763,0.369 1.799,0.369 0.01,0 0.019,0.027 0.019,0.06 0,0.07 -0.139,0.734 -0.156,0.75 -0.007,0.008 -0.417,-0.067 -0.911,-0.167 -0.645,-0.13 -0.905,-0.173 -0.922,-0.154 -0.029,0.034 -0.177,0.782 -0.16,0.798 0.009,0.01 1.888,0.403 1.977,0.415 0.016,0.003 0,0.135 -0.041,0.324 C 1.451,-0.115 1.418,0.043 1.403,0.12 1.377,0.251 1.374,0.256 1.3,0.254 1.257,0.251 0.674,0.137 0,0" /></g><g
           transform="translate(36.4707,37.3164)"
           id="g52"><path
             id="path54"
             style="fill:#000000;fill-opacity:1;fill-rule:nonzero;stroke:none"
             d="m 0,0 c -0.362,-0.079 -0.631,-0.314 -0.775,-0.678 -0.098,-0.245 -0.746,-2.784 -0.746,-2.913 0.002,-0.122 0.026,-0.175 0.125,-0.252 0.041,-0.031 0.544,-0.173 0.617,-0.173 0.03,0 0.081,0.163 0.242,0.782 0.112,0.431 0.213,0.798 0.227,0.815 0.02,0.026 0.19,-0.012 0.876,-0.194 0.468,-0.125 0.873,-0.228 0.9,-0.228 0.043,0 0.059,0.046 0.139,0.355 0.088,0.347 0.106,0.46 0.072,0.46 -0.043,0 -1.739,0.453 -1.754,0.468 -0.022,0.021 0.082,0.407 0.141,0.535 0.061,0.122 0.168,0.196 0.287,0.196 0.045,0 0.433,-0.091 0.861,-0.204 0.429,-0.113 0.809,-0.204 0.842,-0.204 0.062,0 0.067,0.01 0.165,0.386 0.055,0.214 0.092,0.396 0.082,0.408 C 2.272,-0.415 0.725,-0.014 0.545,0.012 0.336,0.043 0.178,0.039 0,0" /></g><g
           transform="translate(26.0225,35.751)"
           id="g56"><path
             id="path58"
             style="fill:#000000;fill-opacity:1;fill-rule:nonzero;stroke:none"
             d="m 0,0 c -0.207,-0.137 -0.598,-0.475 -0.598,-0.513 0,-0.024 0.322,-0.441 0.715,-0.925 C 0.511,-1.923 0.873,-2.374 0.921,-2.44 1.161,-2.774 1.204,-3.047 1.062,-3.344 0.964,-3.556 0.76,-3.759 0.537,-3.867 0.391,-3.941 0.355,-3.948 0.17,-3.948 c -0.242,0 -0.408,0.064 -0.59,0.232 -0.062,0.055 -0.458,0.528 -0.881,1.045 -0.444,0.547 -0.782,0.94 -0.806,0.94 -0.053,0 -0.662,-0.496 -0.662,-0.537 0,-0.058 1.591,-1.995 1.792,-2.184 0.209,-0.196 0.432,-0.321 0.691,-0.386 0.12,-0.031 0.228,-0.036 0.468,-0.026 0.266,0.01 0.341,0.021 0.506,0.081 0.509,0.184 0.986,0.599 1.209,1.055 0.123,0.254 0.176,0.525 0.161,0.834 C 2.044,-2.575 1.974,-2.357 1.804,-2.103 1.696,-1.939 0.166,-0.045 0.096,0.012 0.067,0.036 0.048,0.034 0,0" /></g><g
           transform="translate(42.1348,34.9312)"
           id="g60"><path
             id="path62"
             style="fill:#000000;fill-opacity:1;fill-rule:nonzero;stroke:none"
             d="m 0,0 c -0.107,-0.036 -3.719,-2.386 -3.726,-2.429 -0.009,-0.041 0.699,-0.448 0.78,-0.448 0.029,0 0.592,0.35 1.253,0.779 0.662,0.429 1.214,0.779 1.228,0.779 0.015,0 0.022,-0.019 0.017,-0.04 -0.077,-0.288 -0.32,-1.103 -0.334,-1.12 -0.009,-0.012 -0.074,0.024 -0.144,0.079 -0.067,0.053 -0.143,0.098 -0.168,0.098 -0.059,0 -0.717,-0.429 -0.717,-0.469 0,-0.027 0.415,-0.365 0.717,-0.583 l 0.056,-0.043 -0.113,-0.394 -0.113,-0.393 0.154,-0.141 c 0.436,-0.405 0.549,-0.499 0.578,-0.487 0.019,0.008 0.041,0.043 0.048,0.082 0.006,0.036 0.281,0.99 0.604,2.117 0.66,2.292 0.639,2.186 0.478,2.352 C 0.382,-0.041 0.168,0.053 0,0" /></g><g
           transform="translate(32.9609,32.6294)"
           id="g64"><path
             id="path66"
             style="fill:#000000;fill-opacity:1;fill-rule:nonzero;stroke:none"
             d="m 0,0 c -2.095,-0.146 -4.004,-0.918 -5.629,-2.275 -0.316,-0.264 -1.019,-0.974 -1.019,-1.031 0,-0.045 0.448,-0.458 0.499,-0.458 0.014,0 0.17,0.146 0.345,0.326 1.054,1.079 2.246,1.827 3.642,2.287 1.73,0.571 3.575,0.605 5.309,0.096 1.514,-0.441 3.033,-1.368 4.05,-2.472 0.12,-0.129 0.236,-0.237 0.254,-0.237 0.02,0 0.08,0.041 0.135,0.094 0.056,0.05 0.163,0.143 0.237,0.209 0.074,0.064 0.137,0.131 0.137,0.15 C 7.963,-3.258 7.197,-2.498 6.852,-2.21 5.371,-0.978 3.63,-0.24 1.713,-0.036 1.298,0.01 0.398,0.029 0,0" /></g><g
           transform="translate(37.3848,25.5332)"
           id="g68"><path
             id="path70"
             style="fill:#000000;fill-opacity:1;fill-rule:nonzero;stroke:none"
             d="M 0,0 C 0.688,-0.077 1.194,-0.412 1.504,-1 1.747,-1.458 1.843,-1.896 1.843,-2.529 1.843,-3.17 1.754,-3.577 1.517,-4.04 1.413,-4.238 1.354,-4.318 1.176,-4.495 0.931,-4.74 0.736,-4.864 0.461,-4.951 c -0.535,-0.17 -1.068,-0.129 -1.548,0.12 -0.398,0.206 -0.616,0.434 -0.83,0.865 -0.228,0.461 -0.316,0.941 -0.295,1.592 0.02,0.563 0.099,0.931 0.288,1.307 0.315,0.629 0.875,1.014 1.564,1.074 0.053,0.005 0.108,0.01 0.12,0.013 C -0.226,0.021 -0.117,0.012 0,0 M -0.852,1.717 C -1.9,1.565 -2.735,1.096 -3.311,0.333 c -0.499,-0.664 -0.758,-1.438 -0.83,-2.479 -0.084,-1.23 0.206,-2.41 0.78,-3.176 0.336,-0.449 0.89,-0.909 1.34,-1.113 0.74,-0.337 1.697,-0.448 2.621,-0.302 1.996,0.314 3.178,1.889 3.178,4.231 0,1.374 -0.379,2.424 -1.156,3.201 C 2.111,1.206 1.54,1.506 0.771,1.669 0.519,1.722 0.405,1.73 -0.072,1.738 c -0.384,0.007 -0.621,0 -0.78,-0.021" /></g><g
           transform="translate(11.4136,23.0039)"
           id="g72"><path
             id="path74"
             style="fill:#000000;fill-opacity:1;fill-rule:nonzero;stroke:none"
             d="m 0,0 v -4.088 h 2.879 2.879 v 0.875 0.875 H 3.865 c -1.574,0 -1.895,0.005 -1.919,0.034 -0.019,0.022 -0.027,0.24 -0.022,0.748 l 0.007,0.717 1.723,0.007 1.72,0.005 V 0.036 0.899 H 3.673 C 2.263,0.899 1.97,0.903 1.946,0.933 1.927,0.954 1.919,1.165 1.924,1.656 L 1.931,2.35 3.81,2.356 5.686,2.361 V 3.225 4.088 H 2.843 L 0,4.088 Z" /></g><g
           transform="translate(18.1865,24.3057)"
           id="g76"><path
             id="path78"
             style="fill:#000000;fill-opacity:1;fill-rule:nonzero;stroke:none"
             d="m 0,0 0.007,-2.788 0.055,-0.24 c 0.161,-0.709 0.413,-1.175 0.878,-1.614 0.663,-0.628 1.565,-0.924 2.676,-0.884 1.645,0.06 2.8,0.887 3.178,2.277 0.13,0.476 0.132,0.528 0.132,3.393 V 2.786 H 5.967 5.009 L 5,0.18 C 4.993,-2.127 4.988,-2.448 4.952,-2.587 4.825,-3.103 4.59,-3.429 4.203,-3.618 3.939,-3.747 3.719,-3.79 3.388,-3.776 3.186,-3.769 3.078,-3.75 2.932,-3.702 2.493,-3.553 2.243,-3.315 2.065,-2.877 1.922,-2.522 1.929,-2.64 1.919,0.191 L 1.91,2.786 H 0.95 -0.01 Z" /></g><g
           transform="translate(29.7075,25.3408)"
           id="g80"><path
             id="path82"
             style="fill:#000000;fill-opacity:1;fill-rule:nonzero;stroke:none"
             d="M 0,0 C 0.185,-0.028 0.413,-0.124 0.533,-0.225 0.636,-0.312 0.751,-0.554 0.775,-0.73 0.839,-1.241 0.607,-1.604 0.129,-1.729 -0.029,-1.769 -1.514,-1.788 -1.56,-1.75 c -0.031,0.026 -0.036,0.161 -0.036,0.888 0,0.469 0.008,0.862 0.017,0.87 C -1.555,0.034 -0.185,0.026 0,0 m -3.515,-2.337 v -4.088 h 0.96 0.959 l 0.005,1.458 0.008,1.455 0.443,0.005 c 0.245,0.005 0.456,0 0.471,-0.012 0.011,-0.009 0.362,-0.626 0.774,-1.372 0.413,-0.745 0.778,-1.394 0.809,-1.443 l 0.057,-0.091 h 1.08 c 0.931,0 1.079,0.005 1.079,0.036 0,0.02 -0.397,0.753 -0.887,1.63 -0.487,0.878 -0.888,1.6 -0.888,1.605 0,0.005 0.075,0.057 0.166,0.117 0.792,0.525 1.202,1.268 1.202,2.18 0,0.738 -0.247,1.328 -0.763,1.821 C 1.651,1.259 1.343,1.443 0.933,1.58 0.446,1.741 0.554,1.736 -1.576,1.743 l -1.939,0.01 z" /></g><g
           transform="translate(45.6885,25.3125)"
           id="g84"><path
             id="path86"
             style="fill:#000000;fill-opacity:1;fill-rule:nonzero;stroke:none"
             d="M 0,0 C 0.178,-0.053 0.41,-0.183 0.482,-0.269 0.516,-0.31 0.578,-0.412 0.619,-0.499 0.682,-0.631 0.693,-0.69 0.7,-0.885 0.725,-1.429 0.484,-1.757 -0.02,-1.877 -0.216,-1.923 -1.523,-1.93 -1.569,-1.885 c -0.022,0.023 -0.029,0.269 -0.029,0.967 0,0.518 0.007,0.946 0.019,0.956 0.01,0.01 0.341,0.015 0.737,0.008 C -0.293,0.038 -0.094,0.026 0,0 m -3.518,-2.309 v -4.087 h 0.96 0.96 l 0.005,1.362 0.007,1.359 0.899,0.014 c 0.773,0.015 0.931,0.021 1.128,0.065 1.205,0.254 1.96,0.992 2.162,2.115 0.048,0.265 0.043,0.92 -0.009,1.174 C 2.495,0.156 2.329,0.508 2.07,0.811 1.617,1.333 1.084,1.621 0.333,1.743 0.156,1.771 -0.211,1.779 -1.699,1.779 h -1.819 z" /></g><g
           transform="translate(52.2002,23.3633)"
           id="g88"><path
             id="path90"
             style="fill:#000000;fill-opacity:1;fill-rule:nonzero;stroke:none"
             d="m 0,0 c 0.228,-0.592 0.419,-1.098 0.424,-1.119 0.013,-0.041 -0.04,-0.044 -0.852,-0.044 -0.477,0 -0.871,0.01 -0.878,0.019 -0.006,0.012 0.175,0.518 0.406,1.123 0.233,0.604 0.427,1.117 0.434,1.136 0.012,0.031 0.015,0.031 0.033,0 C -0.423,1.096 -0.226,0.595 0,0 m -1.485,3.673 c -0.013,-0.031 -0.751,-1.854 -1.644,-4.052 -0.892,-2.195 -1.622,-4.011 -1.622,-4.03 0,-0.035 0.11,-0.038 1.082,-0.033 l 1.082,0.006 0.285,0.742 c 0.156,0.407 0.293,0.75 0.305,0.762 0.01,0.01 0.716,0.017 1.567,0.014 l 1.545,-0.007 0.29,-0.755 0.29,-0.756 1.097,-0.006 c 0.833,-0.005 1.094,0.003 1.094,0.024 0,0.035 -3.263,8.076 -3.294,8.117 -0.017,0.022 -0.254,0.03 -1.038,0.03 h -1.018 z" /></g><g
           transform="translate(35.7744,16.5186)"
           id="g92"><path
             id="path94"
             style="fill:#000000;fill-opacity:1;fill-rule:nonzero;stroke:none"
             d="m 0,0 c -0.568,-0.065 -1.149,-0.346 -1.548,-0.751 -0.34,-0.343 -0.552,-0.727 -0.679,-1.234 -0.057,-0.233 -0.062,-0.295 -0.062,-0.734 0,-0.439 0.005,-0.501 0.062,-0.731 0.13,-0.516 0.32,-0.852 0.679,-1.213 0.248,-0.247 0.438,-0.384 0.725,-0.519 0.528,-0.246 1.301,-0.316 1.969,-0.174 0.562,0.118 1.051,0.4 1.479,0.853 l 0.206,0.221 v 0.906 0.908 H 1.439 0.048 v -0.503 -0.504 h 0.775 c 0.571,0 0.782,-0.006 0.804,-0.028 0.017,-0.017 0.028,-0.084 0.028,-0.153 0,-0.12 -0.005,-0.13 -0.134,-0.247 -0.362,-0.331 -0.959,-0.465 -1.473,-0.326 -0.221,0.057 -0.516,0.217 -0.654,0.354 -0.157,0.151 -0.336,0.501 -0.389,0.748 -0.046,0.224 -0.046,0.643 0.002,0.858 0.146,0.667 0.71,1.144 1.35,1.144 0.214,0 0.406,-0.043 0.6,-0.137 0.245,-0.117 0.382,-0.259 0.512,-0.532 0.057,-0.119 0.115,-0.218 0.127,-0.218 0.014,0 0.278,0.075 0.588,0.165 0.558,0.163 0.563,0.166 0.57,0.233 0.01,0.092 -0.093,0.365 -0.216,0.571 C 2.421,-0.842 2.104,-0.509 1.91,-0.377 1.447,-0.061 0.723,0.081 0,0" /></g><g
           transform="translate(19.5801,13.8115)"
           id="g96"><path
             id="path98"
             style="fill:#000000;fill-opacity:1;fill-rule:nonzero;stroke:none"
             d="m 0,0 v -2.638 h 1.859 1.86 v 0.576 0.576 H 2.512 c -0.907,0 -1.214,0.007 -1.236,0.028 -0.021,0.021 -0.028,0.514 -0.028,2.062 V 2.637 H 0.624 0 Z" /></g><g
           transform="translate(23.8027,13.8115)"
           id="g100"><path
             id="path102"
             style="fill:#000000;fill-opacity:1;fill-rule:nonzero;stroke:none"
             d="m 0,0 v -2.638 h 1.859 1.86 v 0.576 0.576 h -1.21 c -0.998,0 -1.214,0.005 -1.235,0.033 -0.02,0.021 -0.026,0.166 -0.022,0.461 l 0.007,0.429 1.099,0.006 1.097,0.005 V 0.024 0.6 H 2.377 C 1.492,0.6 1.295,0.604 1.274,0.633 1.254,0.654 1.248,0.791 1.252,1.069 L 1.259,1.475 2.454,1.481 3.646,1.486 V 2.062 2.637 H 1.823 L 0,2.637 Z" /></g><g
           transform="translate(31.0576,13.9912)"
           id="g104"><path
             id="path106"
             style="fill:#000000;fill-opacity:1;fill-rule:nonzero;stroke:none"
             d="m 0,0 c 0.137,-0.354 0.242,-0.654 0.237,-0.664 -0.013,-0.024 -1.031,-0.024 -1.048,0 -0.007,0.015 0.278,0.791 0.504,1.371 C -0.288,0.755 -0.298,0.776 0,0 m -0.967,2.404 c -0.012,-0.031 -0.487,-1.201 -1.055,-2.6 -0.569,-1.401 -1.035,-2.564 -1.035,-2.582 0,-0.035 0.079,-0.039 0.696,-0.039 0.674,0 0.696,0.003 0.72,0.048 0.015,0.029 0.099,0.235 0.185,0.462 0.086,0.229 0.168,0.427 0.18,0.445 0.019,0.021 0.247,0.028 0.993,0.028 0.926,0 0.97,-0.002 0.991,-0.046 0.015,-0.023 0.099,-0.232 0.185,-0.46 0.088,-0.23 0.169,-0.431 0.184,-0.446 0.017,-0.024 0.19,-0.031 0.715,-0.031 h 0.693 v 0.052 c 0,0.054 -2.048,5.134 -2.093,5.194 -0.018,0.021 -0.183,0.028 -0.68,0.028 h -0.657 z" /></g><g
           transform="translate(39.0928,14.6221)"
           id="g108"><path
             id="path110"
             style="fill:#000000;fill-opacity:1;fill-rule:nonzero;stroke:none"
             d="m 0,0 c 0.007,-1.808 0.007,-1.832 0.06,-2.033 0.187,-0.705 0.71,-1.221 1.432,-1.415 0.29,-0.079 0.993,-0.093 1.308,-0.029 0.601,0.125 1.094,0.454 1.367,0.916 0.108,0.18 0.226,0.516 0.262,0.744 0.016,0.098 0.026,0.797 0.026,1.901 V 1.826 H 3.831 3.21 L 3.2,0.132 C 3.193,-1.692 3.195,-1.657 3.066,-1.908 2.831,-2.369 2.233,-2.522 1.732,-2.251 1.545,-2.15 1.428,-2.012 1.331,-1.771 L 1.276,-1.638 1.269,0.096 1.262,1.826 H 0.626 -0.01 Z" /></g><g
           transform="translate(44.1523,13.8184)"
           id="g112"><path
             id="path114"
             style="fill:#000000;fill-opacity:1;fill-rule:nonzero;stroke:none"
             d="m 0,0 0.007,-2.632 h 1.859 1.86 l 0.007,0.57 0.005,0.569 H 2.529 c -0.998,0 -1.215,0.005 -1.236,0.033 -0.019,0.022 -0.026,0.166 -0.022,0.461 l 0.008,0.429 1.099,0.007 1.096,0.004 V 0.018 0.593 H 2.396 C 1.512,0.593 1.314,0.598 1.293,0.626 1.274,0.647 1.267,0.784 1.271,1.062 L 1.279,1.468 2.474,1.475 3.666,1.479 V 2.055 2.63 H 1.831 -0.005 Z" /></g></g></g></g></svg>