<?xml version="1.0" encoding="UTF-8" standalone="no"?>
<svg
   xmlns:dc="http://purl.org/dc/elements/1.1/"
   xmlns:cc="http://creativecommons.org/ns#"
   xmlns:rdf="http://www.w3.org/1999/02/22-rdf-syntax-ns#"
   xmlns:svg="http://www.w3.org/2000/svg"
   xmlns="http://www.w3.org/2000/svg"
   viewBox="0 0 1098.6667 1600"
   height="1600"
   width="1098.6667"
   xml:space="preserve"
   id="svg2"
   version="1.1"><metadata
     id="metadata8"><rdf:RDF><cc:Work
         rdf:about=""><dc:format>image/svg+xml</dc:format><dc:type
           rdf:resource="http://purl.org/dc/dcmitype/StillImage" /></cc:Work></rdf:RDF></metadata><defs
     id="defs6"><clipPath
       id="clipPath22"
       clipPathUnits="userSpaceOnUse"><path
         id="path20"
         d="M 0,1200 H 824 V 0 H 0 Z" /></clipPath></defs><g
     transform="matrix(1.3333333,0,0,-1.3333333,0,1600)"
     id="g10"><path
       id="path12"
       style="fill:#091c3e;fill-opacity:1;fill-rule:nonzero;stroke:none"
       d="m 4.5,1195.5 h 815 V 4.5 H 4.5 Z" /><path
       id="path14"
       style="fill:#ffffff;fill-opacity:1;fill-rule:nonzero;stroke:none"
       d="M 0,0 H 824 V 1200 H 0 Z M 9,1191 H 815 V 9 H 9 Z" /><g
       id="g16"><g
         clip-path="url(#clipPath22)"
         id="g18"><g
           transform="translate(374,364)"
           id="g24"><path
             id="path26"
             style="fill:#fffffe;fill-opacity:1;fill-rule:evenodd;stroke:none"
             d="m 0,0 v -36 c 0,0 -10.478,-10.936 -35,-11 -24.522,-0.064 -51.228,15.763 -51,43 0.228,27.237 19.756,47 51,47 20.167,0.162 32,-6 32,-6 L -9,17 c 0,0 -12.618,5.891 -26,6 -13.382,0.109 -27.173,-7.931 -27,-26 0.173,-18.069 16.309,-25.016 27,-25 10.691,0.016 13,2 13,2 v 23 z" /></g><path
           id="path28"
           style="fill:#fffffe;fill-opacity:1;fill-rule:evenodd;stroke:none"
           d="m 246,317 h 23 v 90 h -23 z" /><g
           transform="translate(166,407)"
           id="g30"><path
             id="path32"
             style="fill:#fffffe;fill-opacity:1;fill-rule:evenodd;stroke:none"
             d="m 0,0 v -90 h 65 v 19 H 23 V 0 Z" /></g><g
           transform="translate(477,407)"
           id="g34"><path
             id="path36"
             style="fill:#fffffe;fill-opacity:1;fill-rule:evenodd;stroke:none"
             d="m 0,0 h -23 v -54.942 c 0,0 2.155,-15.871 -19,-15.984 0,-0.006 -10e-4,-0.031 -10e-4,-0.074 C -63.155,-70.887 -61,-55 -61,-55 V 0 h -23 c 0,0 0.016,-8.081 0,-51 -0.016,-42.92 42,-39 42,-39 v 0.094 c 0.003,0 42.016,-3.914 42,38.959 C -0.016,-8.072 0,0 0,0" /></g><g
           transform="translate(500,407)"
           id="g38"><path
             id="path40"
             style="fill:#fffffe;fill-opacity:1;fill-rule:evenodd;stroke:none"
             d="m 0,0 v -90 h 67 v 20 H 23 v 17 h 34 v 18 H 23 v 15 H 65 V 0 Z" /></g><g
           transform="translate(636,317)"
           id="g42"><path
             id="path44"
             style="fill:#fffffe;fill-opacity:1;fill-rule:evenodd;stroke:none"
             d="M 0,0 V 62 L -19,52 -24,72 8,90 H 22 V 0 Z" /></g><g
           transform="translate(426.7305,255.8652)"
           id="g46"><path
             id="path48"
             style="fill:#07c26b;fill-opacity:1;fill-rule:nonzero;stroke:none"
             d="M 0,0 H 65.832 V -15.698 H 17.799 V -38.194 H 64.561 V -53.45 H 17.799 V -76.224 H 65.832 V -91.922 H 0 Z m 244.701,-93.746 c 20.175,0 31.562,9.452 31.562,22.497 0,9.286 -6.743,16.195 -20.839,19.181 l -14.924,2.984 c -8.623,1.548 -11.387,3.15 -11.387,6.302 0,4.09 4.146,6.577 11.829,6.577 8.346,0 14.427,-2.211 16.196,-9.729 h 17.466 c -0.939,14.151 -11.386,23.603 -32.501,23.603 -18.241,0 -31.065,-7.406 -31.065,-21.723 0,-9.894 7.075,-16.361 22.276,-19.511 l 16.638,-3.759 c 6.577,-1.272 8.346,-2.986 8.346,-5.639 0,-4.256 -4.975,-6.909 -12.989,-6.909 -10.06,0 -15.864,2.211 -18.075,9.728 h -17.632 c 2.597,-14.15 13.321,-23.602 35.099,-23.602 m -39.798,17.136 h -13.155 c -3.98,0 -6.578,1.713 -6.578,5.361 v 31.783 h 19.678 V -24.1 H 185.17 V -4.754 H 167.537 V -24.1 h -13.266 v -15.421 h 13.266 v -36.094 c 0,-9.121 6.578,-16.362 18.407,-16.362 h 18.904 v 15.367 z m -58.038,52.51 v -67.932 h -17.467 v 6.136 c -6.081,-5.031 -13.763,-7.85 -22.11,-7.85 -20.673,0 -36.812,15.864 -36.812,35.708 0,19.788 16.195,35.707 36.812,35.707 8.347,0 16.029,-2.819 22.11,-7.849 v 6.08 z m -17.136,-33.938 c 0,11.607 -9.286,20.727 -21.003,20.727 -11.553,0 -21.005,-9.12 -21.005,-20.727 0,-11.608 9.452,-20.729 21.005,-20.729 11.717,0 21.003,9.121 21.003,20.729" /></g><g
           transform="translate(158.0962,174.7217)"
           id="g50"><path
             id="path52"
             style="fill:#ffffff;fill-opacity:1;fill-rule:nonzero;stroke:none"
             d="m 0,0 c 12.99,0 22.994,9.839 22.994,24.432 v 56.712 h 14.04 V -10.723 H 23.105 v 8.512 c -6.301,-6.411 -14.98,-10.115 -24.763,-10.115 -20.065,0 -35.431,14.316 -35.431,35.984 v 57.486 h 14.095 V 24.432 C -22.994,9.563 -13.1,0 0,0 m 47.481,-10.778 h 13.376 v 8.402 c 6.136,-6.191 14.869,-9.95 24.321,-9.95 20.065,0 35.818,15.643 35.818,34.933 0,19.402 -15.753,35.044 -35.818,35.044 -9.507,0 -18.074,-3.813 -24.21,-9.949 V 81.144 H 47.481 Z m 36.757,10.115 c -13.1,0 -23.547,10.392 -23.547,23.216 0,12.989 10.558,23.215 23.547,23.215 12.824,0 23.382,-10.226 23.382,-23.215 C 107.675,9.729 97.118,-0.663 84.238,-0.663 m 77.164,58.149 c -19.899,0 -35.044,-15.864 -35.044,-34.767 0,-19.954 15.753,-34.934 36.26,-34.934 12.437,0 22.607,5.361 29.406,14.316 l -9.784,7.075 c -5.085,-6.688 -11.773,-9.839 -19.678,-9.839 -11.497,0 -20.728,8.126 -22.607,19.015 h 55.496 v 4.311 c 0.055,20.01 -14.371,34.823 -34.049,34.823 M 140.287,28.909 c 2.432,10.226 10.834,17.08 20.838,17.08 10.005,0 18.462,-6.799 20.729,-17.08 z m 97.062,15.477 v 12.326 h -4.698 c -7.463,0 -12.99,-3.427 -16.306,-8.788 v 8.291 h -13.377 v -66.938 h 13.487 v 38.029 c 0,10.391 6.412,17.08 15.256,17.08 z" /></g><g
           transform="translate(490.333,770)"
           id="g54"><path
             id="path56"
             style="fill:#ffffff;fill-opacity:1;fill-rule:nonzero;stroke:none"
             d="m 0,0 c 0,43.262 -35.07,78.333 -78.333,78.333 -43.262,0 -78.334,-35.071 -78.334,-78.333 0,-43.262 35.072,-78.333 78.334,-78.333 C -35.07,-78.333 0,-43.262 0,0" /></g><g
           transform="translate(346.292,606.25)"
           id="g58"><path
             id="path60"
             style="fill:#d0fb0c;fill-opacity:1;fill-rule:evenodd;stroke:none"
             d="m 0,0 -60,-97 c 0,0 126.599,-17.63 262,2 77.583,94.214 138.695,212.606 150,242 -47.973,110.972 -127,212 -127,212 l -61,-97 c 0,0 43.954,-55.135 70,-115 C 213.455,104.167 178.5,44.998 144,1 90.227,-4.441 0,0 0,0" /></g><g
           transform="translate(477.708,935.9751)"
           id="g62"><path
             id="path64"
             style="fill:#d0fb0c;fill-opacity:1;fill-rule:evenodd;stroke:none"
             d="m 0,0 60,97 c 0,0 -126.598,17.629 -262,-2 -77.583,-94.214 -138.695,-212.606 -150,-242 47.973,-110.971 127,-212 127,-212 l 61,97 c 0,0 -43.954,55.135 -70,115 20.545,42.834 55.5,102.002 90,146 C -90.227,4.441 0,0 0,0" /></g></g></g></g></svg>