<?xml version="1.0" encoding="UTF-8" standalone="no"?>
<svg
   xmlns:dc="http://purl.org/dc/elements/1.1/"
   xmlns:cc="http://creativecommons.org/ns#"
   xmlns:rdf="http://www.w3.org/1999/02/22-rdf-syntax-ns#"
   xmlns:svg="http://www.w3.org/2000/svg"
   xmlns="http://www.w3.org/2000/svg"
   viewBox="0 0 269.76001 285.23999"
   height="285.23999"
   width="269.76001"
   xml:space="preserve"
   id="svg2"
   version="1.1"><metadata
     id="metadata8"><rdf:RDF><cc:Work
         rdf:about=""><dc:format>image/svg+xml</dc:format><dc:type
           rdf:resource="http://purl.org/dc/dcmitype/StillImage" /></cc:Work></rdf:RDF></metadata><defs
     id="defs6"><clipPath
       id="clipPath26"
       clipPathUnits="userSpaceOnUse"><path
         id="path24"
         d="m 403.863,576.531 c 233.797,233.809 467.598,467.599 701.397,701.399 233.8,233.8 467.6,467.6 701.4,701.4 -548.7,0 -1097.398,0 -1646.097,0 0,-222.3 0,-444.6 0,-666.9 0,-213.5 45.699,-406.5 135.8,-573.789 30.7,-56.911 66.496,-111.012 107.5,-162.11 z" /></clipPath><clipPath
       id="clipPath32"
       clipPathUnits="userSpaceOnUse"><path
         id="path30"
         d="m 403.863,576.531 c 233.797,233.809 467.598,467.599 701.397,701.399 233.8,233.8 467.6,467.6 701.4,701.4 -548.7,0 -1097.398,0 -1646.097,0 0,-222.3 0,-444.6 0,-666.9 0,-213.5 45.699,-406.5 135.8,-573.789 30.7,-56.911 66.496,-111.012 107.5,-162.11" /></clipPath><clipPath
       id="clipPath58"
       clipPathUnits="userSpaceOnUse"><path
         id="path56"
         d="m 1863.22,1312.41 c 0,-212.06 -45.2,-404.012 -134.34,-570.519 C 1657.57,608.68 1557.79,490.66 1432.32,391.102 1252.6,248.5 1069.77,184.07 1010.89,165.789 c -58.273,17.992 -236.855,80.813 -415.62,221.59 -50.598,39.84 -96.977,82.723 -139.114,128.332 L 1863.22,1922.77 Z M 296.387,738.621 C 206.277,905.91 160.586,1098.96 160.586,1312.41 v 666.93 H 1806.65 L 403.816,576.5 C 362.969,627.59 327.055,681.699 296.387,738.621 Z M 1886.65,2059.34 H 80.5859 c 0,0 0,0 0,-746.93 0,-351.34 116.1641,-607.828 266.3551,-792.781 l -233.8,-233.797 56.57,-56.562 229.805,229.8 C 668.84,169.141 1010.96,82.5195 1010.96,82.5195 c 0,0 932.26,235.3905 932.26,1229.8905 0,430.94 0,613.23 0,690.36 0,56.55 0,56.57 0,56.57 z" /></clipPath><radialGradient
       id="radialGradient64"
       spreadMethod="pad"
       gradientTransform="matrix(960.289,0,0,-960.289,1011.9,1070.93)"
       gradientUnits="userSpaceOnUse"
       r="1"
       cy="0"
       cx="0"
       fy="0"
       fx="0"><stop
         id="stop60"
         offset="0"
         style="stop-opacity:1;stop-color:#008ad4" /><stop
         id="stop62"
         offset="1"
         style="stop-opacity:1;stop-color:#141c45" /></radialGradient></defs><g
     transform="matrix(1.3333333,0,0,-1.3333333,0,285.24)"
     id="g10"><g
       transform="scale(0.1)"
       id="g12"><path
         id="path14"
         style="fill:#ffffff;fill-opacity:1;fill-rule:nonzero;stroke:none"
         d="M 169.719,116.129 0,285.82 1853.52,2139.34 h 169.7 V 1969.63 L 169.719,116.129" /><path
         id="path16"
         style="fill:#ffffff;fill-opacity:1;fill-rule:nonzero;stroke:none"
         d="m 240.586,1899.34 v -586.92 c 0,-200.08 42.473,-380.361 126.23,-535.861 C 433.539,652.711 527.051,542.922 644.762,450.219 793.5,333.102 943.293,273.129 1010.85,249.961 c 68.82,23.648 221.99,84.98 371.74,203.809 116.87,92.742 209.65,202.378 275.76,325.878 82.86,154.774 124.87,334.032 124.87,532.772 v 586.92 z M 1010.95,0 991.344,4.96094 C 981.172,7.53906 739.453,70.1797 496.285,261.68 270.145,439.75 0.585938,766.59 0.585938,1312.42 v 826.92 H 2023.22 v -826.92 c 0,-545.869 -270.1,-872.721 -496.7,-1050.791 C 1282.9,70.1719 1040.74,7.53125 1030.56,4.94922 L 1010.95,0" /><path
         id="path18"
         style="fill:#ffffff;fill-opacity:1;fill-rule:nonzero;stroke:none"
         d="m 1863.26,1922.83 v -610.4 c 0,-212.1 -45.2,-404 -134.4,-570.5 -71.3,-133.2 -171.1,-251.301 -296.5,-350.801 -179.8,-142.598 -362.6,-207.098 -421.5,-225.297 -58.2,17.898 -236.801,80.797 -415.602,221.5 C 544.66,427.23 498.16,470.129 456.16,515.73 l 1407.1,1407.1" /><g
         id="g20"><g
           clip-path="url(#clipPath26)"
           id="g22"><g
             clip-path="url(#clipPath32)"
             id="g28"><g
               transform="matrix(10,0,0,-10,-80878.5,82894.6)"
               id="g34"><path
                 id="path36"
                 style="fill:#d80b1e;fill-opacity:1;fill-rule:nonzero;stroke:none"
                 d="m 8128.225,8231.8096 c -4.0995,-5.1094 -7.6804,-10.5213 -10.7482,-16.2113 15.0393,-10.5456 30.0786,-21.0912 45.118,-31.6369 -0.022,4.4019 0.2106,8.6661 0.7021,12.779 -11.6906,11.6879 -23.3813,23.3786 -35.0719,35.0692 z" /><path
                 id="path38"
                 style="fill:#d80b1e;fill-opacity:1;fill-rule:nonzero;stroke:none"
                 d="m 8163.2969,8196.7404 c -0.4915,-4.1129 -0.7237,-8.3771 -0.7021,-12.779 15.0393,-10.5456 30.0786,-21.0939 45.1179,-31.6395 -3.1137,3.1164 -6.2301,6.2301 -9.3466,9.3466 -11.6906,11.6906 -23.3786,23.3813 -35.0692,35.0719 z" /><path
                 id="path40"
                 style="fill:#d80b1e;fill-opacity:1;fill-rule:nonzero;stroke:none"
                 d="m 8117.4768,8215.5983 c -9.0117,-16.7299 -13.581,-36.0279 -13.581,-57.3784 22.1093,-5.79 44.2187,-11.5799 66.328,-17.3699 -4.807,15.4822 -7.3293,29.9409 -7.629,43.1114 -15.0394,10.5457 -30.0787,21.0913 -45.118,31.6369 z" /><path
                 id="path42"
                 style="fill:#ce0a1c;fill-opacity:1;fill-rule:nonzero;stroke:none"
                 d="m 8162.5948,8183.9614 c 0.2997,-13.1705 2.822,-27.6292 7.629,-43.1114 22.1093,-5.7873 44.2187,-11.5772 66.328,-17.3672 -9.6139,9.6139 -19.2252,19.2279 -28.8391,28.8391 -15.0393,10.5456 -30.0786,21.0939 -45.1179,31.6395 z" /><path
                 id="path44"
                 style="fill:#d80b1e;fill-opacity:1;fill-rule:nonzero;stroke:none"
                 d="m 8103.8958,8158.2199 c 22.1093,-5.79 44.2187,-11.5799 66.328,-17.3699 2.6627,-8.2205 5.3255,-16.4409 7.9882,-24.6614 -24.7721,2.895 -49.5442,5.79 -74.3162,8.685 0,11.1154 0,22.2308 0,33.3463 z" /><path
                 id="path46"
                 style="fill:#d80b1e;fill-opacity:1;fill-rule:nonzero;stroke:none"
                 d="m 8103.8958,8124.8736 c 24.772,-2.895 49.5441,-5.79 74.3162,-8.685 2.6627,-8.2204 5.3255,-16.4409 7.9882,-24.6586 -27.4348,0 -54.8696,0 -82.3044,0 0,11.1127 0,22.2282 0,33.3436 z" /><path
                 id="path48"
                 style="fill:#b20819;fill-opacity:1;fill-rule:nonzero;stroke:none"
                 d="m 8170.2238,8140.85 c 22.1093,-5.7873 44.2187,-11.5772 66.328,-17.3672 5.3255,-5.3255 10.6509,-10.6509 15.9791,-15.9764 -24.7748,2.895 -49.5441,5.7873 -74.3189,8.6822 -2.6627,8.2205 -5.3255,16.4409 -7.9882,24.6614 z" /><path
                 id="path50"
                 style="fill:#a30717;fill-opacity:1;fill-rule:nonzero;stroke:none"
                 d="m 8178.212,8116.1886 c 24.7748,-2.8949 49.5441,-5.7872 74.3189,-8.6822 5.3255,-5.3255 10.6509,-10.6536 15.9764,-15.9764 -27.4348,0 -54.8696,0 -82.3071,0 -2.6627,8.2177 -5.3255,16.4382 -7.9882,24.6586 z" /></g></g></g></g><g
         id="g52"><g
           clip-path="url(#clipPath58)"
           id="g54"><path
             id="path66"
             style="fill:url(#radialGradient64);fill-opacity:1;fill-rule:nonzero;stroke:none"
             d="m 1863.22,1312.41 c 0,-212.06 -45.2,-404.012 -134.34,-570.519 C 1657.57,608.68 1557.79,490.66 1432.32,391.102 1252.6,248.5 1069.77,184.07 1010.89,165.789 c -58.273,17.992 -236.855,80.813 -415.62,221.59 -50.598,39.84 -96.977,82.723 -139.114,128.332 L 1863.22,1922.77 Z M 296.387,738.621 C 206.277,905.91 160.586,1098.96 160.586,1312.41 v 666.93 H 1806.65 L 403.816,576.5 C 362.969,627.59 327.055,681.699 296.387,738.621 Z M 1886.65,2059.34 H 80.5859 c 0,0 0,0 0,-746.93 0,-351.34 116.1641,-607.828 266.3551,-792.781 l -233.8,-233.797 56.57,-56.562 229.805,229.8 C 668.84,169.141 1010.96,82.5195 1010.96,82.5195 c 0,0 932.26,235.3905 932.26,1229.8905 0,430.94 0,613.23 0,690.36 0,56.55 0,56.57 0,56.57 h -56.57" /></g></g><path
         id="path68"
         style="fill:#ffffff;fill-opacity:1;fill-rule:nonzero;stroke:none"
         d="m 416.539,1428.09 22.098,-68 h 71.508 l -57.848,-42.04 22.094,-68.01 -57.852,42.03 -57.848,-42.03 22.094,68.01 -57.847,42.04 h 71.507 l 22.094,68" /><path
         id="path70"
         style="fill:#ffffff;fill-opacity:1;fill-rule:nonzero;stroke:none"
         d="m 754.875,1428.09 22.098,-68 h 71.507 l -57.851,-42.04 22.098,-68.01 -57.852,42.03 -57.852,-42.03 22.098,68.01 -57.851,42.04 h 71.507 l 22.098,68" /><path
         id="path72"
         style="fill:#ffffff;fill-opacity:1;fill-rule:nonzero;stroke:none"
         d="m 584.875,1201.43 22.098,-68.01 h 71.507 l -57.851,-42.03 22.098,-68.01 -57.852,42.03 -57.852,-42.03 22.098,68.01 -57.851,42.03 h 71.507 l 22.098,68.01" /><path
         id="path74"
         style="fill:#ffffff;fill-opacity:1;fill-rule:nonzero;stroke:none"
         d="m 240.895,1887.25 c 0,3.17 2.117,5.28 5.285,5.28 h 62.883 c 4.226,0 6.867,-1.58 8.457,-5.28 l 90.886,-205.03 h 2.11 l 89.3,205.03 c 1.586,3.7 4.231,5.28 8.457,5.28 h 61.825 c 3.172,0 5.285,-2.11 5.285,-5.28 v -348.76 c 0,-3.17 -2.113,-5.28 -5.285,-5.28 h -59.707 c -3.176,0 -5.286,2.11 -5.286,5.28 v 202.39 h -2.113 L 436.41,1589.22 c -2.113,-4.76 -5.285,-6.87 -10.039,-6.87 H 389.91 c -4.758,0 -7.926,2.11 -10.039,6.87 l -66.582,151.66 h -2.113 v -202.39 c 0,-3.17 -2.113,-5.28 -5.285,-5.28 H 246.18 c -3.168,0 -5.285,2.11 -5.285,5.28 v 348.76" /><path
         id="path76"
         style="fill:#ffffff;fill-opacity:1;fill-rule:nonzero;stroke:none"
         d="m 637.219,1887.25 c 0,3.17 2.117,5.28 5.285,5.28 h 67.109 c 3.168,0 5.282,-2.11 5.282,-5.28 V 1605.6 c 0,-2.11 1.058,-3.17 3.175,-3.17 h 158.52 c 3.176,0 5.285,-2.11 5.285,-5.29 v -58.65 c 0,-3.17 -2.109,-5.28 -5.285,-5.28 H 642.504 c -3.168,0 -5.285,2.11 -5.285,5.28 v 348.76" /><path
         id="path78"
         style="fill:#ffffff;fill-opacity:1;fill-rule:nonzero;stroke:none"
         d="m 903.547,1576.54 c -2.113,2.11 -3.168,5.81 -0.527,8.98 l 40.156,45.98 c 2.117,2.64 5.289,2.64 7.929,0.52 23.782,-19.02 56.015,-36.98 94.055,-36.98 37.52,0 58.66,17.43 58.66,42.8 0,21.13 -12.69,34.34 -55.49,40.16 l -19.02,2.64 c -72.919,10.04 -113.611,44.38 -113.611,107.79 0,66.05 49.676,109.91 127.341,109.91 47.56,0 91.95,-14.27 122.08,-37.51 3.16,-2.12 3.69,-4.23 1.05,-7.93 l -32.24,-48.09 c -2.11,-2.64 -4.75,-3.17 -7.39,-1.58 -27.48,17.96 -53.91,27.48 -83.5,27.48 -31.69,0 -48.075,-16.39 -48.075,-39.11 0,-20.61 14.795,-33.81 56.005,-39.63 l 19.03,-2.64 c 73.97,-10.04 113.07,-43.86 113.07,-108.85 0,-65 -48.08,-113.08 -141.08,-113.08 -56.01,0 -110.435,22.19 -138.443,49.14" /><path
         id="path80"
         style="fill:#141c45;fill-opacity:1;fill-rule:nonzero;stroke:none"
         d="m 427.359,642.98 c -0.386,-0.39 -0.91,-0.39 -1.304,0 l -34.793,34.801 c -0.262,0.258 -0.524,0.25 -0.782,-0.011 l -11.23,-11.231 c -0.391,-0.391 -0.91,-0.391 -1.297,-0.008 l -7.254,7.258 c -0.386,0.391 -0.386,0.91 0,1.301 l 32.84,32.832 c 0.391,0.398 0.91,0.398 1.305,0.008 l 7.25,-7.25 c 0.386,-0.391 0.386,-0.91 -0.004,-1.301 l -11.227,-11.231 c -0.265,-0.257 -0.269,-0.519 -0.008,-0.789 l 34.793,-34.777 c 0.395,-0.402 0.395,-0.922 0.004,-1.312 l -8.293,-8.29" /><path
         id="path82"
         style="fill:#141c45;fill-opacity:1;fill-rule:nonzero;stroke:none"
         d="m 409.324,712.41 c -0.39,0.391 -0.39,0.91 0,1.301 l 7.77,7.777 c 0.519,0.512 1.039,0.653 1.691,0.391 l 36.555,-14.098 0.265,0.258 -14.296,36.359 c -0.266,0.653 -0.129,1.172 0.394,1.704 l 7.637,7.628 c 0.39,0.391 0.914,0.391 1.305,0 l 43.078,-43.082 c 0.394,-0.386 0.39,-0.91 0,-1.296 l -7.371,-7.391 c -0.399,-0.391 -0.914,-0.391 -1.309,0 l -24.996,25 -0.266,-0.262 10.508,-26.949 c 0.324,-0.852 0.195,-1.512 -0.391,-2.09 l -4.503,-4.5 c -0.586,-0.59 -1.243,-0.73 -2.09,-0.39 l -26.953,10.5 -0.258,-0.258 24.992,-25 c 0.394,-0.391 0.391,-0.91 0,-1.313 l -7.375,-7.367 c -0.395,-0.391 -0.91,-0.391 -1.313,0 l -43.074,43.078" /></g></g></svg>