<?xml version="1.0" encoding="UTF-8" standalone="no"?>
<svg
   xmlns:dc="http://purl.org/dc/elements/1.1/"
   xmlns:cc="http://creativecommons.org/ns#"
   xmlns:rdf="http://www.w3.org/1999/02/22-rdf-syntax-ns#"
   xmlns:svg="http://www.w3.org/2000/svg"
   xmlns="http://www.w3.org/2000/svg"
   viewBox="0 0 853.33331 640"
   height="70"
   width="75.33331"
   xml:space="preserve"
   id="svg2"
   version="1.1"><metadata
     id="metadata8"><rdf:RDF><cc:Work
         rdf:about=""><dc:format>image/svg+xml</dc:format><dc:type
           rdf:resource="http://purl.org/dc/dcmitype/StillImage" /></cc:Work></rdf:RDF></metadata><defs
     id="defs6"><clipPath
       id="clipPath18"
       clipPathUnits="userSpaceOnUse"><path
         id="path16"
         d="M 0,480 H 640 V 0 H 0 Z" /></clipPath></defs><g
     transform="matrix(1.3333333,0,0,-1.3333333,0,640)"
     id="g10"><g
       id="g12"><g
         clip-path="url(#clipPath18)"
         id="g14"><g
           transform="translate(393.7705,324.8989)"
           id="g20"><path
             id="path22"
             style="fill:#2f083b;fill-opacity:1;fill-rule:nonzero;stroke:none"
             d="m 0,0 10.574,8.347 c 7.402,-12.055 6.27,-25.475 1.296,-39.513 l -12.362,15.692 z m -191.332,-178.645 h 4.551 c 2.628,0 5.519,-0.268 7.532,-2.21 1.312,-1.24 2.191,-3.272 2.191,-5.747 0,-2.565 -0.963,-4.595 -2.191,-5.833 -2.188,-2.121 -5.43,-2.211 -7.268,-2.211 h -4.815 z m -13.484,11.138 v -58.961 h 13.484 v 20.685 h 8.23 c 4.116,0 10.244,0.44 14.888,5.215 2.188,2.296 4.989,6.451 4.989,13.878 0,4.065 -0.702,9.899 -5.692,14.318 -4.641,4.155 -10.246,4.865 -15.324,4.865 z m 45.545,-59.665 h 10.347 v 15.998 c 0,3.359 0.208,7.607 2.512,10.608 2.495,3.251 7.092,4.781 10.547,3.483 l -0.13,9.689 c -1.148,0.44 -2.082,0.618 -3.375,0.618 -2.013,0 -3.809,-0.353 -5.531,-1.679 -1.653,-1.24 -3.091,-3.27 -4.023,-5.478 v 6.184 h -10.347 z m 64.829,18.83 c 0,4.86 -0.832,11.05 -5.231,16.001 -4.569,5.126 -10.551,5.919 -14.702,5.919 -4.153,0 -9.718,-0.884 -14.201,-5.659 -3.737,-4.065 -5.65,-9.896 -5.65,-15.555 0,-6.541 2.327,-11.755 5.564,-15.204 4.321,-4.595 9.219,-5.656 14.786,-5.656 4.151,0 8.14,0.621 11.711,2.914 1.515,0.997 3.602,2.729 5.286,5.597 l -6.198,6.807 c -3.369,-4.561 -5.761,-5.685 -10.634,-5.685 -1.825,0 -4.329,0.351 -6.146,2.478 -1.504,1.759 -2.241,4.592 -2.241,6.717 h 27.656 z m -27.243,6.274 c 0.333,1.767 1.165,3.185 2.078,4.242 1.163,1.237 2.99,2.564 6.063,2.564 2.407,0 4.318,-0.884 5.646,-2.207 1.745,-1.768 2.326,-4.246 2.409,-4.599 z m 32.128,-25.104 h 11.423 v 20.154 c 0,1.325 0.081,5.748 2.225,8.043 1.11,1.149 2.457,1.593 3.966,1.593 1.189,0 2.617,-0.266 3.808,-1.593 1.745,-1.942 1.824,-5.034 1.824,-7.689 v -20.508 h 11.421 v 19.626 c 0,2.564 0.24,5.654 1.747,7.776 0.951,1.415 2.538,2.388 4.442,2.388 1.667,0 3.176,-0.797 4.124,-2.121 1.511,-2.122 1.511,-5.658 1.511,-7.692 v -19.977 h 11.421 v 24.928 c 0,2.828 -0.237,8.135 -3.647,11.755 -2.145,2.299 -5.632,3.713 -9.919,3.713 -2.775,0 -5.074,-0.53 -7.534,-2.208 -2.302,-1.592 -3.651,-3.45 -4.525,-5.041 -0.951,2.386 -2.457,4.33 -4.282,5.48 -2.38,1.591 -5.157,1.769 -6.663,1.769 -2.698,0 -6.981,-0.618 -9.919,-5.565 v 4.592 h -11.423 z m 63.933,0 h 10.264 v 39.424 h -10.264 z m 5.131,58.373 c 3.176,0 5.753,-2.576 5.753,-5.752 0,-3.175 -2.577,-5.75 -5.753,-5.75 -3.173,0 -5.75,2.575 -5.75,5.75 0,3.176 2.577,5.752 5.75,5.752 m 54.338,-58.373 h 10.343 v 15.998 c 0,3.359 0.213,7.607 2.517,10.608 2.494,3.251 7.094,4.781 10.547,3.483 l -0.13,9.689 c -1.149,0.44 -2.081,0.618 -3.377,0.618 -2.01,0 -3.809,-0.353 -5.53,-1.679 -1.652,-1.24 -3.09,-3.27 -4.027,-5.478 v 6.184 H 33.845 Z m -4.145,18.83 c 0,4.86 -0.83,11.05 -5.23,16.001 -4.569,5.126 -10.549,5.919 -14.702,5.919 -4.154,0 -9.718,-0.884 -14.203,-5.659 -3.737,-4.065 -5.649,-9.896 -5.649,-15.555 0,-6.541 2.326,-11.755 5.566,-15.204 4.319,-4.595 9.22,-5.656 14.783,-5.656 4.153,0 8.14,0.621 11.713,2.914 1.515,0.997 3.602,2.729 5.288,5.597 l -6.203,6.807 c -3.364,-4.561 -5.758,-5.685 -10.631,-5.685 -1.828,0 -4.328,0.351 -6.148,2.478 -1.503,1.759 -2.241,4.592 -2.241,6.717 H 29.7 Z m -27.24,6.274 c 0.331,1.767 1.164,3.185 2.075,4.242 1.164,1.237 2.989,2.564 6.063,2.564 2.409,0 4.318,-0.884 5.647,-2.207 1.744,-1.768 2.325,-4.246 2.408,-4.599 z m -207.237,-30.876 v -59.561 h 37.756 v 11.611 h -24.002 v 47.95 z m 106.173,-29.468 c 2.234,0 4.979,-0.893 6.873,-2.767 1.801,-1.785 2.834,-4.462 2.834,-7.323 0,-3.393 -1.397,-5.87 -3.007,-7.498 -1.652,-1.674 -3.95,-2.77 -6.441,-2.77 -2.921,0 -5.591,1.24 -7.301,3.127 -1.125,1.24 -2.573,3.567 -2.573,7.141 0,3.574 1.544,5.896 2.831,7.234 1.631,1.697 4.122,2.856 6.784,2.856 m 10.46,5.27 c -3.522,5.001 -8.76,5.804 -12.024,5.804 -5.322,0 -9.963,-1.963 -13.312,-5.447 -3.521,-3.663 -5.926,-9.376 -5.926,-16.072 0,-5.27 1.546,-10.449 5.583,-14.911 4.208,-4.647 8.844,-6.073 14.343,-6.073 3.177,0 7.985,0.802 11.336,6.157 v -4.821 h 11.311 v 39.828 h -11.311 z m 36.921,-4.96 c 2.324,0 5.11,-0.783 6.967,-2.503 1.714,-1.585 3.035,-4.193 3.035,-7.319 0,-2.948 -1.153,-5.727 -3.125,-7.592 -1.333,-1.261 -3.571,-2.588 -6.967,-2.588 -3.036,0 -5.448,0.982 -7.234,2.856 -1.783,1.873 -2.766,4.554 -2.766,7.143 0,2.411 1.066,5.545 3.036,7.412 1.603,1.526 4.197,2.591 7.054,2.591 m 10.41,4.78 c -1.428,2.143 -4.641,5.984 -11.875,5.984 -7.411,0 -12.053,-3.213 -14.464,-5.714 -3.393,-3.482 -5.896,-9.109 -5.896,-15.895 0,-6.875 2.589,-11.697 5.806,-15.003 3.66,-3.661 8.392,-5.626 14.554,-5.626 7.324,0 10.359,3.482 11.875,5.984 v -4.555 c 0,-11.261 -18.89,-11.997 -24.21,-3.297 l -6.51,-9.13 c 14.729,-12.62 41.352,-8.784 41.352,14.48 v 37.417 h -10.632 z m 16.291,4.645 v -24.02 c 0,-4.375 0.65,-8.397 3.983,-11.969 4.147,-4.462 10.167,-5.175 14.64,-5.175 4.312,0 10.41,0.713 14.557,5.175 3.66,3.929 4.067,8.216 4.067,12.771 v 23.218 H 1.014 v -21.967 c 0,-1.967 -0.243,-4.643 -1.951,-6.428 -1.056,-1.074 -2.766,-1.876 -4.962,-1.876 -2.602,0 -4.065,1.071 -4.877,1.876 -1.874,1.872 -2.036,4.643 -2.036,6.428 v 21.967 z m -99.499,-19.674 c 0,4.862 -0.831,11.046 -5.232,15.997 -4.569,5.128 -10.549,5.924 -14.7,5.924 -4.153,0 -9.717,-0.881 -14.204,-5.654 -3.738,-4.068 -5.648,-9.902 -5.648,-15.557 0,-6.542 2.326,-11.76 5.565,-15.205 4.319,-4.597 9.22,-5.659 14.784,-5.659 4.15,0 8.141,0.619 11.71,2.919 1.517,0.991 3.605,2.722 5.289,5.595 l -6.199,6.805 c -3.368,-4.558 -5.761,-5.684 -10.635,-5.684 -1.825,0 -4.325,0.346 -6.145,2.477 -1.503,1.76 -2.244,4.597 -2.244,6.718 h 27.659 z m -27.242,6.275 c 0.331,1.768 1.164,3.183 2.077,4.245 1.16,1.237 2.988,2.563 6.063,2.563 2.407,0 4.319,-0.884 5.647,-2.21 1.745,-1.77 2.325,-4.243 2.41,-4.598 z m 208.538,-6.275 c 0,4.862 -0.828,11.046 -5.231,15.997 -4.567,5.128 -10.548,5.924 -14.7,5.924 -4.15,0 -9.717,-0.881 -14.204,-5.654 -3.737,-4.068 -5.647,-9.902 -5.647,-15.557 0,-6.542 2.326,-11.76 5.567,-15.205 4.318,-4.597 9.215,-5.659 14.782,-5.659 4.151,0 8.141,0.619 11.71,2.919 1.516,0.991 3.608,2.722 5.291,5.595 l -6.198,6.805 c -3.369,-4.558 -5.762,-5.684 -10.636,-5.684 -1.827,0 -4.328,0.346 -6.145,2.477 -1.503,1.76 -2.243,4.597 -2.243,6.718 h 27.654 z m -27.24,6.275 c 0.333,1.768 1.164,3.183 2.074,4.245 1.165,1.237 2.994,2.563 6.066,2.563 2.408,0 4.318,-0.884 5.647,-2.21 1.744,-1.77 2.324,-4.243 2.41,-4.598 z m -68.992,220.347 c 10.262,2.328 18.401,6.363 25.602,13.358 l 12.614,0.743 c 13.574,-5.705 2.448,-35.824 -10.667,-37.661 2.029,5.749 2.27,11.877 0.834,18.366 -5.798,-6.376 -12.691,-10.132 -20.961,-10.574 z m 16.416,54.403 c 3.633,-3.973 8.051,-6.475 12.799,-8.346 l -0.185,-14.47 c -8.691,-9.585 -18.528,-16.771 -29.865,-20.406 -2.622,-0.838 -5.7,-0.192 -7.054,2.228 l -12.243,21.888 c -0.85,1.525 0.642,3.666 2.412,4.637 l 26.343,14.469 c 2.448,1.346 5.895,2.078 7.793,0 m -80.882,57.327 c -22.746,14.606 -28.453,1.107 -23,-30.794 -9.093,4.268 -12.987,15.461 -11.688,33.579 -16.051,-12.772 -28.285,-27.236 -35.432,-43.964 l 13.356,-1.858 c -14.107,-17.695 -23.611,-37.338 -24.858,-60.476 7.175,-0.74 14.408,2.784 20.591,7.981 -5.612,-27.788 -3.289,-55.073 7.424,-79.402 14.888,11.965 26.662,26.005 35.616,41.926 6.933,-22.069 7.537,-44.713 -1.856,-68.266 32.31,-16.343 64.618,-15.413 96.927,7.328 2.526,-5.019 3.601,-10.684 3.9,-16.698 24.488,16.195 40.191,39.277 43.406,71.793 4.661,0.316 7.336,-3.524 9.275,-8.904 14.267,41.027 6.947,78.13 -16.881,112.232 -0.098,-2.632 -0.642,-4.916 -1.853,-6.677 -3.71,2.624 -6.246,5.907 -7.979,9.648 6.529,0.597 -1.624,20.742 -8.344,6.026 l -12.244,7.516 c 5.909,-9.275 13.964,-17.603 23.56,-26.158 -11.894,2.016 -22.49,1.442 -31.908,-1.487 -4.027,7.221 -9.576,13.063 -16.324,17.808 0.404,4.368 2.253,8.374 4.636,12.246 -3.951,-3.308 -8.011,-6.132 -12.708,-6.214 -14.506,10.407 -24.665,8.545 -35.71,-0.092 6.142,-7.663 17.262,-8.793 33.298,-7.794 7.406,-4.55 13.344,-10.23 17.532,-17.252 l -1.298,-1.485 -5.936,1.857 -34.506,0.187 c -7.899,2.015 -14.117,6.078 -16.323,15.027 l -2.877,-0.465 1.483,6.494 -11.686,1.112 20.685,14.376 -7.05,2.226 c 3.315,7.298 28.746,20.395 37.452,16.807 6.399,-2.634 17.479,-8.387 25.063,-15.137 2.238,4.085 3.42,8.952 3.68,14.519 11.016,-6.51 21.444,-15.373 31.72,-24.856 -3.556,7.718 -6.729,15.563 -6.553,24.526 -11.471,8.109 -23.469,14.095 -36.177,17.254 2.286,-4.204 1.987,-8.47 1.303,-12.43 -3.856,6.845 -11.934,12.265 -19.003,15.151 -25.408,0.542 -44.128,-4.091 -64.106,-12.922 8.216,-1.679 13.114,-6.672 15.393,-14.288 m -38.583,50.273 c 7.72,-10.315 13.427,-20.969 15.213,-32.276 26.567,16.671 59.379,20.366 98.317,11.313 -0.281,11.127 2.444,22.518 7.607,34.136 l -19.481,-20.22 -1.113,32.648 -24.114,-29.312 -17.44,28.014 -7.049,-21.331 -1.668,-11.505 -32.279,21.89 4.638,-27.267 z" /></g></g></g></g></svg>