<?xml version="1.0" encoding="UTF-8" standalone="no"?>
<svg
   xmlns:dc="http://purl.org/dc/elements/1.1/"
   xmlns:cc="http://creativecommons.org/ns#"
   xmlns:rdf="http://www.w3.org/1999/02/22-rdf-syntax-ns#"
   xmlns:svg="http://www.w3.org/2000/svg"
   xmlns="http://www.w3.org/2000/svg"
   viewBox="0 0 252.17332 376.65332"
   height="376.65332"
   width="252.17332"
   xml:space="preserve"
   id="svg2"
   version="1.1"><metadata
     id="metadata8"><rdf:RDF><cc:Work
         rdf:about=""><dc:format>image/svg+xml</dc:format><dc:type
           rdf:resource="http://purl.org/dc/dcmitype/StillImage" /></cc:Work></rdf:RDF></metadata><defs
     id="defs6"><clipPath
       id="clipPath30"
       clipPathUnits="userSpaceOnUse"><path
         id="path28"
         d="M 930.195,1314.63 H 1204.8 l -274.605,755.14 z" /></clipPath><linearGradient
       id="linearGradient36"
       spreadMethod="pad"
       gradientTransform="matrix(243.706,-662.467,662.467,243.706,840.591,1935.77)"
       gradientUnits="userSpaceOnUse"
       y2="0"
       x2="1"
       y1="0"
       x1="0"><stop
         id="stop32"
         offset="0"
         style="stop-opacity:1;stop-color:#1c79c4" /><stop
         id="stop34"
         offset="1"
         style="stop-opacity:1;stop-color:#275da0" /></linearGradient><clipPath
       id="clipPath46"
       clipPathUnits="userSpaceOnUse"><path
         id="path44"
         d="m 659.031,1314.63 h 271.164 v 755.14 z" /></clipPath><linearGradient
       id="linearGradient52"
       spreadMethod="pad"
       gradientTransform="matrix(-212.812,65.2166,-65.2166,-212.812,1001.76,1628.71)"
       gradientUnits="userSpaceOnUse"
       y2="0"
       x2="1"
       y1="0"
       x1="0"><stop
         id="stop48"
         offset="0"
         style="stop-opacity:1;stop-color:#1c79c4" /><stop
         id="stop50"
         offset="1"
         style="stop-opacity:1;stop-color:#275da0" /></linearGradient><clipPath
       id="clipPath62"
       clipPathUnits="userSpaceOnUse"><path
         id="path60"
         d="M 1204.8,1314.63 930.195,888.988 1626.99,1314.63 Z" /></clipPath><linearGradient
       id="linearGradient68"
       spreadMethod="pad"
       gradientTransform="matrix(-648.747,-418.768,418.768,-648.747,1541.87,1395.96)"
       gradientUnits="userSpaceOnUse"
       y2="0"
       x2="1"
       y1="0"
       x1="0"><stop
         id="stop64"
         offset="0"
         style="stop-opacity:1;stop-color:#1c79c4" /><stop
         id="stop66"
         offset="1"
         style="stop-opacity:1;stop-color:#275da0" /></linearGradient><clipPath
       id="clipPath78"
       clipPathUnits="userSpaceOnUse"><path
         id="path76"
         d="M 930.195,1314.63 V 888.988 L 1204.8,1314.63 Z" /></clipPath><linearGradient
       id="linearGradient84"
       spreadMethod="pad"
       gradientTransform="matrix(-240.279,-415.34,415.34,-240.279,1093.73,1359.97)"
       gradientUnits="userSpaceOnUse"
       y2="0"
       x2="1"
       y1="0"
       x1="0"><stop
         id="stop80"
         offset="0"
         style="stop-opacity:1;stop-color:#1c79c4" /><stop
         id="stop82"
         offset="1"
         style="stop-opacity:1;stop-color:#275da0" /></linearGradient><clipPath
       id="clipPath94"
       clipPathUnits="userSpaceOnUse"><path
         id="path92"
         d="M 236.84,1314.63 930.195,888.988 659.031,1314.63 Z" /></clipPath><linearGradient
       id="linearGradient100"
       spreadMethod="pad"
       gradientTransform="matrix(631.575,-405.032,405.032,631.575,329.712,1390.45)"
       gradientUnits="userSpaceOnUse"
       y2="0"
       x2="1"
       y1="0"
       x1="0"><stop
         id="stop96"
         offset="0"
         style="stop-opacity:1;stop-color:#1c79c4" /><stop
         id="stop98"
         offset="1"
         style="stop-opacity:1;stop-color:#275da0" /></linearGradient><clipPath
       id="clipPath110"
       clipPathUnits="userSpaceOnUse"><path
         id="path108"
         d="M 659.031,1314.63 930.195,888.988 v 425.642 z" /></clipPath><linearGradient
       id="linearGradient116"
       spreadMethod="pad"
       gradientTransform="matrix(157.897,151.031,-151.031,157.897,809.536,1116.08)"
       gradientUnits="userSpaceOnUse"
       y2="0"
       x2="1"
       y1="0"
       x1="0"><stop
         id="stop112"
         offset="0"
         style="stop-opacity:1;stop-color:#1c79c4" /><stop
         id="stop114"
         offset="1"
         style="stop-opacity:1;stop-color:#275da0" /></linearGradient></defs><g
     transform="matrix(1.3333333,0,0,-1.3333333,0,376.65333)"
     id="g10"><g
       transform="scale(0.1)"
       id="g12"><path
         id="path14"
         style="fill:#ffffff;fill-opacity:1;fill-rule:nonzero;stroke:none"
         d="M 1465.66,2824.92 H 425.621 C 192.219,2824.92 0,2632.7 0,2399.29 V 425.609 C 0,192.211 192.219,0 425.621,0 H 1465.66 c 233.42,0 425.62,192.211 425.62,425.609 V 2399.29 c 0,233.41 -192.2,425.63 -425.62,425.63" /><path
         id="path16"
         style="fill:#26518f;fill-opacity:1;fill-rule:nonzero;stroke:none"
         d="m 1493.12,538.879 6.86,3.441 h 48.04 l 6.88,-3.441 96.11,-267.719 -6.85,-3.441 h -51.51 l -6.85,3.441 -13.73,48.051 h -99.56 l -13.73,-48.051 -6.85,-3.441 h -54.92 v 3.441 z m -3.42,-168.168 h 65.2 l -30.88,96.098 h -3.44 z m -408.45,168.168 3.39,3.441 h 181.94 l 3.43,-3.441 v -41.188 l -3.43,-6.851 h -120.16 l -3.42,-3.442 v -54.91 l 3.42,-3.429 h 106.43 v -44.618 l -6.86,-6.871 H 1143 v -54.922 l 3.42,-3.437 h 120.16 l 3.43,-3.422 V 271.16 l -3.43,-3.441 h -181.94 l -3.39,3.441 z m -113.305,0 3.457,3.441 h 51.468 l 3.45,-3.441 V 271.16 l -3.45,-3.441 h -51.468 l -3.457,3.441 z m -106.398,-271.16 -6.867,3.441 -48.063,102.969 h -34.316 l -3.418,-3.418 V 271.16 l -6.875,-3.441 H 710.52 l -3.426,3.441 v 267.719 l 3.426,3.441 h 113.265 c 27.461,0 51.496,-10.289 68.656,-24.019 13.735,-13.719 27.461,-37.762 27.461,-61.789 0,-34.321 -20.601,-61.793 -51.496,-78.942 l 58.356,-106.41 -6.86,-3.441 z m -41.188,154.472 c 24.028,0 37.754,13.731 37.754,34.321 0,20.59 -13.726,34.328 -37.754,34.328 h -48.058 l -3.418,-3.442 v -61.789 l 3.418,-3.418 z m -346.683,116.688 3.433,3.441 h 178.489 l 3.433,-3.441 v -41.188 l -3.433,-6.851 H 535.469 l -3.438,-3.442 v -54.91 l 3.438,-3.429 h 102.976 v -44.618 l -3.433,-6.871 H 532.031 v -54.922 l 3.438,-3.437 h 120.129 l 3.433,-3.422 V 271.16 l -3.433,-3.441 H 477.109 l -3.433,3.441 z M 260.863,274.602 c -20.59,6.859 -37.754,17.16 -44.609,27.457 v 3.429 l 30.891,37.75 h 3.429 c 24.02,-17.16 51.481,-27.449 75.504,-27.449 27.461,0 44.629,10.289 44.629,34.313 0,13.75 -10.297,24.027 -44.629,27.468 h -13.719 c -58.359,10.301 -89.25,37.75 -89.25,85.821 0,24.007 10.297,44.629 27.465,61.769 17.16,13.719 44.617,24.02 75.504,24.02 34.332,0 68.652,-10.301 92.684,-30.879 v -6.871 l -24.032,-34.328 -6.859,-3.422 c -20.598,13.718 -41.187,24.011 -61.793,24.011 -24.023,0 -41.183,-17.152 -41.183,-30.882 0,-17.149 17.16,-27.457 44.621,-30.887 l 13.738,-3.434 c 58.344,-6.879 89.234,-34.328 89.234,-82.386 0,-51.493 -41.187,-85.801 -109.836,-85.801 l -61.789,10.301" /><path
         id="path18"
         style="fill:#15a75e;fill-opacity:1;fill-rule:nonzero;stroke:none"
         d="m 229.977,755.129 h 470.242 v -54.91 H 229.977 v 54.91" /><path
         id="path20"
         style="fill:#e3e4e7;fill-opacity:1;fill-rule:nonzero;stroke:none"
         d="m 700.219,755.129 h 463.391 v -54.91 H 700.219 v 54.91" /><path
         id="path22"
         style="fill:#cc3a50;fill-opacity:1;fill-rule:nonzero;stroke:none"
         d="m 1163.61,755.129 h 470.25 v -54.91 h -470.25 v 54.91" /><g
         id="g24"><g
           clip-path="url(#clipPath30)"
           id="g26"><path
             id="path38"
             style="fill:url(#linearGradient36);fill-opacity:1;fill-rule:nonzero;stroke:none"
             d="M 930.195,1314.63 H 1204.8 l -274.605,755.14 z" /></g></g><g
         id="g40"><g
           clip-path="url(#clipPath46)"
           id="g42"><path
             id="path54"
             style="fill:url(#linearGradient52);fill-opacity:1;fill-rule:nonzero;stroke:none"
             d="m 659.031,1314.63 h 271.164 v 755.14 z" /></g></g><g
         id="g56"><g
           clip-path="url(#clipPath62)"
           id="g58"><path
             id="path70"
             style="fill:url(#linearGradient68);fill-opacity:1;fill-rule:nonzero;stroke:none"
             d="M 1204.8,1314.63 930.195,888.988 1626.99,1314.63 Z" /></g></g><g
         id="g72"><g
           clip-path="url(#clipPath78)"
           id="g74"><path
             id="path86"
             style="fill:url(#linearGradient84);fill-opacity:1;fill-rule:nonzero;stroke:none"
             d="M 930.195,1314.63 V 888.988 L 1204.8,1314.63 Z" /></g></g><g
         id="g88"><g
           clip-path="url(#clipPath94)"
           id="g90"><path
             id="path102"
             style="fill:url(#linearGradient100);fill-opacity:1;fill-rule:nonzero;stroke:none"
             d="M 236.84,1314.63 930.195,888.988 659.031,1314.63 Z" /></g></g><g
         id="g104"><g
           clip-path="url(#clipPath110)"
           id="g106"><path
             id="path118"
             style="fill:url(#linearGradient116);fill-opacity:1;fill-rule:nonzero;stroke:none"
             d="M 659.031,1314.63 930.195,888.988 v 425.642 z" /></g></g><path
         id="path120"
         style="fill:#1c9de0;fill-opacity:1;fill-rule:nonzero;stroke:none"
         d="M 1626.99,1314.63 1074.35,2605.24 H 786.035 L 236.84,1314.63 H 659.031 L 930.195,2069.77 1057.2,1719.65 H 930.195 l -72.082,-216.23 h 278.037 l 68.65,-188.79 h 422.19" /></g></g></svg>